<svg xmlns="http://www.w3.org/2000/svg" viewBox="0 0 814 1000" width="50" height="60">
  <path fill="#1d1d1f" d="M788.1 340.9c-5.8 4.5-108.2 62.2-108.2 190.5 0 148.4 130.3 200.9 134.2 202.9-0.6 3.6-20.5 71.3-68.7 141.6-42.2 60.6-87.2 120.9-155.1 120.9-67.9 0-90.7-39.4-171.3-39.4-79.6 0-108.8 41.3-170.4 41.3-61.6 0-106.6-58.7-155.9-129.7C34.8 673.4 0 557 0 447.4c0-173.4 109.7-263.9 217.3-263.9 71.6 0 131.6 46.9 175.3 46.9 42.5 0 109.7-50.1 192.3-50.1 38.2 0 177.4 1.5 274.5 112.6zM577.1 0c9.3 64.1-27.7 128.1-71.5 172.8-42.4 43.3-110.4 76.3-176.3 73.5-10.8-62.6 30.9-128.7 70.3-170.9C421.3 32.3 491.9-2.6 577.1 0z"/>
</svg>
